<?xml version="1.0" encoding="UTF-8"?>
<svg version="1.1" xmlns="http://www.w3.org/2000/svg" width="50" height="50">
<path d="M0 0 C13.86 0 27.72 0 42 0 C42 13.86 42 27.72 42 42 C28.14 42 14.28 42 0 42 C0 28.14 0 14.28 0 0 Z M3 2 C2.67 3.32 2.34 4.64 2 6 C14.54 6 27.08 6 40 6 C39.505 4.02 39.505 4.02 39 2 C27.12 2 15.24 2 3 2 Z M2 8 C1.979375 13.094375 1.95875 18.18875 1.9375 23.4375 C1.928396 25.04681396 1.91929199 26.65612793 1.90991211 28.31420898 C1.90741455 29.57048096 1.90491699 30.82675293 1.90234375 32.12109375 C1.89710693 33.4145874 1.89187012 34.70808105 1.88647461 36.04077148 C1.66003068 38.88652404 1.66003068 38.88652404 3 40 C5.65456193 40.10095564 8.28255176 40.13970998 10.9375 40.1328125 C12.13040649 40.13424759 12.13040649 40.13424759 13.34741211 40.13571167 C15.0320646 40.13639343 16.71671971 40.13453943 18.40136719 40.13037109 C20.98899197 40.12502275 23.57644316 40.13031619 26.1640625 40.13671875 C27.79687539 40.13605797 29.42968816 40.1347768 31.0625 40.1328125 C31.84165771 40.13483673 32.62081543 40.13686096 33.42358398 40.13894653 C37.007942 40.4583958 37.007942 40.4583958 40 39 C40.08790975 36.70848583 40.10694038 34.41427476 40.09765625 32.12109375 C40.09515869 30.86482178 40.09266113 29.6085498 40.09008789 28.31420898 C40.08098389 26.70489502 40.07187988 25.09558105 40.0625 23.4375 C40.041875 18.343125 40.02125 13.24875 40 8 C27.46 8 14.92 8 2 8 Z " fill="#000000" transform="translate(4,4)"/>
<path d="M0 0 C0.66 0 1.32 0 2 0 C2 0.66 2 1.32 2 2 C3.32 2.33 4.64 2.66 6 3 C6.33 4.32 6.66 5.64 7 7 C4.36 6.67 1.72 6.34 -1 6 C-1 6.66 -1 7.32 -1 8 C0.134375 8.474375 1.26875 8.94875 2.4375 9.4375 C6 11 6 11 7 12 C7.375 14.8125 7.375 14.8125 7 18 C4.5 20.375 4.5 20.375 2 22 C-0.91517292 20.92598892 -2.77810176 20.22189824 -5 18 C-5 16.68 -5 15.36 -5 14 C-4.01 14 -3.02 14 -2 14 C-2 14.99 -2 15.98 -2 17 C-0.02 17 1.96 17 4 17 C3.33029489 13.93600134 3.33029489 13.93600134 1.15234375 12.83203125 C0.42144531 12.49558594 -0.30945313 12.15914062 -1.0625 11.8125 C-2.16271484 11.29623047 -2.16271484 11.29623047 -3.28515625 10.76953125 C-3.85105469 10.51558594 -4.41695312 10.26164062 -5 10 C-4.67 7.69 -4.34 5.38 -4 3 C-2.68 2.67 -1.36 2.34 0 2 C0 1.34 0 0.68 0 0 Z " fill="#000000" transform="translate(24,17)"/>
<path d="M0 0 C0.66 0 1.32 0 2 0 C2 0.66 2 1.32 2 2 C1.34 2 0.68 2 0 2 C0 1.34 0 0.68 0 0 Z " fill="#000000" transform="translate(13,7)"/>
<path d="M0 0 C0.66 0 1.32 0 2 0 C2 0.66 2 1.32 2 2 C1.34 2 0.68 2 0 2 C0 1.34 0 0.68 0 0 Z " fill="#000000" transform="translate(10,7)"/>
<path d="M0 0 C0.66 0 1.32 0 2 0 C2 0.66 2 1.32 2 2 C1.34 2 0.68 2 0 2 C0 1.34 0 0.68 0 0 Z " fill="#000000" transform="translate(7,7)"/>
</svg>
